<svg width="795" height="130" viewBox="0 0 795 130" fill="none" xmlns="http://www.w3.org/2000/svg">
<path d="M0.224 49.944C0.224 41.0693 2.144 33.176 5.984 26.264C9.824 19.2667 15.1573 13.848 21.984 10.008C28.896 6.08266 36.704 4.12 45.408 4.12C56.0747 4.12 65.2053 6.93599 72.8 12.568C80.3947 18.2 85.472 25.88 88.032 35.608H63.968C62.176 31.8533 59.616 28.9947 56.288 27.032C53.0453 25.0693 49.3333 24.088 45.152 24.088C38.4107 24.088 32.9493 26.4347 28.768 31.128C24.5867 35.8213 22.496 42.0933 22.496 49.944C22.496 57.7947 24.5867 64.0667 28.768 68.76C32.9493 73.4533 38.4107 75.8 45.152 75.8C49.3333 75.8 53.0453 74.8187 56.288 72.856C59.616 70.8933 62.176 68.0347 63.968 64.28H88.032C85.472 74.008 80.3947 81.688 72.8 87.32C65.2053 92.8667 56.0747 95.64 45.408 95.64C36.704 95.64 28.896 93.72 21.984 89.88C15.1573 85.9547 9.824 80.536 5.984 73.624C2.144 66.712 0.224 58.8187 0.224 49.944ZM168.636 23.576L123.836 128.92H100.284L116.668 92.568L87.612 23.576H112.06L128.572 68.248L144.956 23.576H168.636ZM192.679 33.688C194.727 30.36 197.671 27.672 201.511 25.624C205.351 23.576 209.746 22.552 214.695 22.552C220.583 22.552 225.916 24.0453 230.695 27.032C235.474 30.0187 239.228 34.2853 241.959 39.832C244.775 45.3787 246.183 51.8213 246.183 59.16C246.183 66.4987 244.775 72.984 241.959 78.616C239.228 84.1627 235.474 88.472 230.695 91.544C225.916 94.5307 220.583 96.024 214.695 96.024C209.66 96.024 205.266 95.0427 201.511 93.08C197.756 91.032 194.812 88.344 192.679 85.016V95H170.791V0.279999H192.679V33.688ZM223.911 59.16C223.911 53.6987 222.375 49.432 219.303 46.36C216.316 43.2027 212.604 41.624 208.167 41.624C203.815 41.624 200.103 43.2027 197.031 46.36C194.044 49.5173 192.551 53.8267 192.551 59.288C192.551 64.7493 194.044 69.0587 197.031 72.216C200.103 75.3733 203.815 76.952 208.167 76.952C212.519 76.952 216.231 75.3733 219.303 72.216C222.375 68.9733 223.911 64.6213 223.911 59.16ZM319.234 58.136C319.234 60.184 319.106 62.3173 318.85 64.536H269.314C269.655 68.9733 271.063 72.3867 273.538 74.776C276.098 77.08 279.213 78.232 282.882 78.232C288.343 78.232 292.141 75.928 294.274 71.32H317.57C316.375 76.0133 314.199 80.2373 311.042 83.992C307.97 87.7467 304.087 90.6907 299.394 92.824C294.701 94.9573 289.453 96.024 283.65 96.024C276.653 96.024 270.423 94.5307 264.962 91.544C259.501 88.5573 255.234 84.2907 252.162 78.744C249.09 73.1973 247.554 66.712 247.554 59.288C247.554 51.864 249.047 45.3787 252.034 39.832C255.106 34.2853 259.373 30.0187 264.834 27.032C270.295 24.0453 276.567 22.552 283.65 22.552C290.562 22.552 296.706 24.0027 302.082 26.904C307.458 29.8053 311.639 33.944 314.626 39.32C317.698 44.696 319.234 50.968 319.234 58.136ZM296.834 52.376C296.834 48.6213 295.554 45.6347 292.994 43.416C290.434 41.1973 287.234 40.088 283.394 40.088C279.725 40.088 276.61 41.1547 274.05 43.288C271.575 45.4213 270.039 48.4507 269.442 52.376H296.834ZM346.909 35.48C349.469 31.5547 352.669 28.4827 356.509 26.264C360.349 23.96 364.616 22.808 369.309 22.808V45.976H363.293C357.832 45.976 353.736 47.1707 351.005 49.56C348.274 51.864 346.909 55.96 346.909 61.848V95H325.021V23.576H346.909V35.48ZM413.029 49.944C413.029 41.0693 414.949 33.176 418.789 26.264C422.629 19.2667 427.962 13.848 434.789 10.008C441.701 6.08266 449.509 4.12 458.213 4.12C468.88 4.12 478.01 6.93599 485.605 12.568C493.2 18.2 498.277 25.88 500.837 35.608H476.773C474.981 31.8533 472.421 28.9947 469.093 27.032C465.85 25.0693 462.138 24.088 457.957 24.088C451.216 24.088 445.754 26.4347 441.573 31.128C437.392 35.8213 435.301 42.0933 435.301 49.944C435.301 57.7947 437.392 64.0667 441.573 68.76C445.754 73.4533 451.216 75.8 457.957 75.8C462.138 75.8 465.85 74.8187 469.093 72.856C472.421 70.8933 474.981 68.0347 476.773 64.28H500.837C498.277 74.008 493.2 81.688 485.605 87.32C478.01 92.8667 468.88 95.64 458.213 95.64C449.509 95.64 441.701 93.72 434.789 89.88C427.962 85.9547 422.629 80.536 418.789 73.624C414.949 66.712 413.029 58.8187 413.029 49.944ZM504.129 59.16C504.129 51.8213 505.494 45.3787 508.225 39.832C511.041 34.2853 514.838 30.0187 519.617 27.032C524.396 24.0453 529.729 22.552 535.617 22.552C540.652 22.552 545.046 23.576 548.801 25.624C552.641 27.672 555.585 30.36 557.633 33.688V23.576H579.521V95H557.633V84.888C555.5 88.216 552.513 90.904 548.673 92.952C544.918 95 540.524 96.024 535.489 96.024C529.686 96.024 524.396 94.5307 519.617 91.544C514.838 88.472 511.041 84.1627 508.225 78.616C505.494 72.984 504.129 66.4987 504.129 59.16ZM557.633 59.288C557.633 53.8267 556.097 49.5173 553.025 46.36C550.038 43.2027 546.369 41.624 542.017 41.624C537.665 41.624 533.953 43.2027 530.881 46.36C527.894 49.432 526.401 53.6987 526.401 59.16C526.401 64.6213 527.894 68.9733 530.881 72.216C533.953 75.3733 537.665 76.952 542.017 76.952C546.369 76.952 550.038 75.3733 553.025 72.216C556.097 69.0587 557.633 64.7493 557.633 59.288ZM680.732 22.808C689.607 22.808 696.647 25.496 701.852 30.872C707.143 36.248 709.788 43.7147 709.788 53.272V95H688.028V56.216C688.028 51.608 686.791 48.0667 684.316 45.592C681.927 43.032 678.599 41.752 674.332 41.752C670.065 41.752 666.695 43.032 664.22 45.592C661.831 48.0667 660.636 51.608 660.636 56.216V95H638.876V56.216C638.876 51.608 637.639 48.0667 635.164 45.592C632.775 43.032 629.447 41.752 625.18 41.752C620.913 41.752 617.543 43.032 615.068 45.592C612.679 48.0667 611.484 51.608 611.484 56.216V95H589.596V23.576H611.484V32.536C613.703 29.5493 616.604 27.2027 620.188 25.496C623.772 23.704 627.825 22.808 632.348 22.808C637.724 22.808 642.503 23.96 646.684 26.264C650.951 28.568 654.279 31.8533 656.668 36.12C659.143 32.1947 662.513 28.9947 666.78 26.52C671.047 24.0453 675.697 22.808 680.732 22.808ZM741.224 33.688C743.357 30.36 746.301 27.672 750.056 25.624C753.811 23.576 758.205 22.552 763.24 22.552C769.128 22.552 774.461 24.0453 779.24 27.032C784.019 30.0187 787.773 34.2853 790.504 39.832C793.32 45.3787 794.728 51.8213 794.728 59.16C794.728 66.4987 793.32 72.984 790.504 78.616C787.773 84.1627 784.019 88.472 779.24 91.544C774.461 94.5307 769.128 96.024 763.24 96.024C758.291 96.024 753.896 95 750.056 92.952C746.301 90.904 743.357 88.2587 741.224 85.016V129.048H719.336V23.576H741.224V33.688ZM772.456 59.16C772.456 53.6987 770.92 49.432 767.848 46.36C764.861 43.2027 761.149 41.624 756.712 41.624C752.36 41.624 748.648 43.2027 745.576 46.36C742.589 49.5173 741.096 53.8267 741.096 59.288C741.096 64.7493 742.589 69.0587 745.576 72.216C748.648 75.3733 752.36 76.952 756.712 76.952C761.064 76.952 764.776 75.3733 767.848 72.216C770.92 68.9733 772.456 64.6213 772.456 59.16Z" fill="white"/>
</svg>
